<svg xmlns="http://www.w3.org/2000/svg" viewBox="0 0 480 300" role="img"><title>Wegwerkzaamheden met rijstrookversmalling</title><defs><linearGradient id="sky" x1="0" y1="0" x2="0" y2="1"><stop offset="0" stop-color="#8fc4e8"/><stop offset="1" stop-color="#dcecf7"/></linearGradient></defs><rect width="480" height="118" fill="url(#sky)"/><rect y="118" width="480" height="182" fill="#7fa86b"/><polygon points="230.0,118 250.0,118 468.0,300 12.0,300" fill="#5f6266"/><polygon points="238.8,136.2 241.2,136.2 241.6,143.844 238.4,143.844" fill="#f2f2f2"/><polygon points="238.8,154.4 241.2,154.4 241.6,169.688 238.4,169.688" fill="#f2f2f2"/><polygon points="238.0,190.8 242.0,190.8 242.84,221.37599999999998 237.16,221.37599999999998" fill="#f2f2f2"/><polygon points="236.0,263.6 244.0,263.6 245.68,300 234.32,300" fill="#f2f2f2"/><polygon points="224.5708,121.64 227.5708,121.64 23.840000000000003,300 13.840000000000003,300" fill="#f2f2f2"/><polygon points="252.4292,121.64 255.4292,121.64 466.15999999999997,300 456.15999999999997,300" fill="#f2f2f2"/><g transform="translate(283,136)"><rect x="-0.8" y="-4.7" width="1.5" height="4.7" fill="#6b5236"/><ellipse cx="0" cy="-7.1" rx="3.9" ry="4.7" fill="#3f6b3a"/></g><g transform="translate(356,176)"><rect x="-1.4" y="-8.4" width="2.7" height="8.4" fill="#6b5236"/><ellipse cx="0" cy="-12.7" rx="7.1" ry="8.4" fill="#3f6b3a"/></g><g transform="translate(438,216)"><rect x="-1.9" y="-12.2" width="3.9" height="12.2" fill="#6b5236"/><ellipse cx="0" cy="-18.3" rx="10.2" ry="12.2" fill="#3f6b3a"/></g><g transform="translate(530,256)"><rect x="-2.5" y="-15.9" width="5.1" height="15.9" fill="#6b5236"/><ellipse cx="0" cy="-23.9" rx="13.4" ry="15.9" fill="#3f6b3a"/></g><g transform="translate(215,249)"><polygon points="-9,0 9,0 5,-22 -5,-22" fill="#e8622a"/><rect x="-6" y="-16" width="12" height="5" fill="#fff"/></g><g transform="translate(203,233)"><polygon points="-9,0 9,0 5,-22 -5,-22" fill="#e8622a"/><rect x="-6" y="-16" width="12" height="5" fill="#fff"/></g><g transform="translate(195,216)"><polygon points="-9,0 9,0 5,-22 -5,-22" fill="#e8622a"/><rect x="-6" y="-16" width="12" height="5" fill="#fff"/></g><g transform="translate(191,200)"><polygon points="-9,0 9,0 5,-22 -5,-22" fill="#e8622a"/><rect x="-6" y="-16" width="12" height="5" fill="#fff"/></g><g transform="translate(191,184)"><polygon points="-9,0 9,0 5,-22 -5,-22" fill="#e8622a"/><rect x="-6" y="-16" width="12" height="5" fill="#fff"/></g><g transform="translate(80,231)"><rect x="-3.9" y="-43.5" width="7.8" height="43.5" fill="#9aa3a9"/><polygon points="0,-126.3 45.7,-41.4 -45.7,-41.4" fill="#fff" stroke="#d0021b" stroke-width="12.2"/></g><rect x="0.5" y="0.5" width="479" height="299" fill="none" stroke="#00000022"/></svg>