<svg xmlns="http://www.w3.org/2000/svg" viewBox="0 0 480 300" role="img"><title>Verblindende tegenligger in het donker</title><defs><linearGradient id="sky" x1="0" y1="0" x2="0" y2="1"><stop offset="0" stop-color="#101a2b"/><stop offset="1" stop-color="#20304a"/></linearGradient></defs><rect width="480" height="118" fill="url(#sky)"/><rect y="118" width="480" height="182" fill="#1b2a1c"/><polygon points="230.0,118 250.0,118 468.0,300 12.0,300" fill="#26282b"/><polygon points="238.8,136.2 241.2,136.2 241.6,143.844 238.4,143.844" fill="#f2f2f2"/><polygon points="238.8,154.4 241.2,154.4 241.6,169.688 238.4,169.688" fill="#f2f2f2"/><polygon points="238.0,190.8 242.0,190.8 242.84,221.37599999999998 237.16,221.37599999999998" fill="#f2f2f2"/><polygon points="236.0,263.6 244.0,263.6 245.68,300 234.32,300" fill="#f2f2f2"/><polygon points="224.5708,121.64 227.5708,121.64 23.840000000000003,300 13.840000000000003,300" fill="#c9c9c9"/><polygon points="252.4292,121.64 255.4292,121.64 466.15999999999997,300 456.15999999999997,300" fill="#c9c9c9"/><defs><radialGradient id="glow"><stop offset="0" stop-color="#fffbe0" stop-opacity=".95"/><stop offset="1" stop-color="#fffbe0" stop-opacity="0"/></radialGradient></defs><circle cx="199" cy="168" r="70" fill="url(#glow)"/><g transform="translate(199,194)"><ellipse cx="0" cy="0" rx="42.2" ry="5.1" fill="#000" opacity=".22"/><rect x="-40.6" y="-39.3" width="81.2" height="39.3" rx="5.7" fill="#1c2733"/><rect x="-29.2" y="-63.4" width="58.5" height="26.6" rx="4.9" fill="#1c2733"/><rect x="-24.4" y="-60.2" width="48.7" height="19.0" rx="2.4" fill="#5a6f80"/><rect x="-37.4" y="-28.5" width="14.6" height="8.9" rx="3" fill="#fff6c8"/><rect x="22.7" y="-28.5" width="14.6" height="8.9" rx="3" fill="#fff6c8"/><rect x="-16.2" y="-13.9" width="32.5" height="6.3" rx="2" fill="#111" opacity=".5"/></g><rect x="0.5" y="0.5" width="479" height="299" fill="none" stroke="#00000022"/></svg>