<svg xmlns="http://www.w3.org/2000/svg" viewBox="0 0 480 300" role="img"><title>Harde zijwind op een open brug</title><defs><linearGradient id="sky" x1="0" y1="0" x2="0" y2="1"><stop offset="0" stop-color="#96bcd8"/><stop offset="1" stop-color="#dfeaf2"/></linearGradient></defs><rect width="480" height="118" fill="url(#sky)"/><rect y="118" width="480" height="182" fill="#9fb6c4"/><polygon points="230.0,118 250.0,118 468.0,300 12.0,300" fill="#5f6266"/><polygon points="238.8,136.2 241.2,136.2 241.6,143.844 238.4,143.844" fill="#f2f2f2"/><polygon points="238.8,154.4 241.2,154.4 241.6,169.688 238.4,169.688" fill="#f2f2f2"/><polygon points="238.0,190.8 242.0,190.8 242.84,221.37599999999998 237.16,221.37599999999998" fill="#f2f2f2"/><polygon points="236.0,263.6 244.0,263.6 245.68,300 234.32,300" fill="#f2f2f2"/><polygon points="224.5708,121.64 227.5708,121.64 23.840000000000003,300 13.840000000000003,300" fill="#f2f2f2"/><polygon points="252.4292,121.64 255.4292,121.64 466.15999999999997,300 456.15999999999997,300" fill="#f2f2f2"/><g stroke="#8c99a4" stroke-width="6" opacity=".8"><line x1="30" y1="118" x2="10" y2="300"/><line x1="450" y1="118" x2="470" y2="300"/></g><g stroke="#c7d3db" stroke-width="3" opacity=".9"><path d="M40 130 C120 120 160 140 240 128" fill="none"/><path d="M60 152 C150 142 200 162 280 150" fill="none"/></g><g transform="translate(293,191)"><ellipse cx="0" cy="0" rx="53.1" ry="5.4" fill="#000" opacity=".25"/><rect x="-51.0" y="-107.2" width="102.1" height="98.6" rx="3.1" fill="#e8e8e8" stroke="#9aa3a9" stroke-width="1.5"/><rect x="-44.9" y="-96.4" width="89.8" height="58.9" fill="#cfd6da"/><rect x="-46.9" y="-13.9" width="12.2" height="8.6" fill="#8c1d18"/><rect x="34.7" y="-13.9" width="12.2" height="8.6" fill="#8c1d18"/></g><rect x="0.5" y="0.5" width="479" height="299" fill="none" stroke="#00000022"/></svg>