<svg xmlns="http://www.w3.org/2000/svg" viewBox="0 0 480 300" role="img"><title>Kinderen bij een school langs de weg</title><defs><linearGradient id="sky" x1="0" y1="0" x2="0" y2="1"><stop offset="0" stop-color="#8fc4e8"/><stop offset="1" stop-color="#dcecf7"/></linearGradient></defs><rect width="480" height="118" fill="url(#sky)"/><rect y="118" width="480" height="182" fill="#9aa79a"/><polygon points="225.64,121.64 219.178,121.64 -124.80000000000001,300 12.0,300" fill="#c9c4bb"/><polygon points="254.36,121.64 260.822,121.64 604.8,300 468.0,300" fill="#c9c4bb"/><polygon points="230.0,118 250.0,118 468.0,300 12.0,300" fill="#5f6266"/><polygon points="238.8,136.2 241.2,136.2 241.6,143.844 238.4,143.844" fill="#f2f2f2"/><polygon points="238.8,154.4 241.2,154.4 241.6,169.688 238.4,169.688" fill="#f2f2f2"/><polygon points="238.0,190.8 242.0,190.8 242.84,221.37599999999998 237.16,221.37599999999998" fill="#f2f2f2"/><polygon points="236.0,263.6 244.0,263.6 245.68,300 234.32,300" fill="#f2f2f2"/><polygon points="224.5708,121.64 227.5708,121.64 23.840000000000003,300 13.840000000000003,300" fill="#f2f2f2"/><polygon points="252.4292,121.64 255.4292,121.64 466.15999999999997,300 456.15999999999997,300" fill="#f2f2f2"/><g transform="translate(299,143)"><rect x="-9.9" y="-17.8" width="19.8" height="17.8" fill="#b98a6a"/><polygon points="-11.5,-17.8 11.5,-17.8 0,-25.3" fill="#7a4a3a"/><rect x="-5.5" y="-13.1" width="4.4" height="4.4" fill="#dfeaf2"/><rect x="1.2" y="-13.1" width="4.4" height="4.4" fill="#dfeaf2"/></g><g transform="translate(395,191)"><rect x="-19.0" y="-34.2" width="38.0" height="34.2" fill="#a97a5c"/><polygon points="-22.0,-34.2 22.0,-34.2 0,-48.6" fill="#7a4a3a"/><rect x="-10.6" y="-25.1" width="8.4" height="8.4" fill="#dfeaf2"/><rect x="2.3" y="-25.1" width="8.4" height="8.4" fill="#dfeaf2"/></g><g transform="translate(506,238)"><rect x="-28.1" y="-50.6" width="56.2" height="50.6" fill="#c49a78"/><polygon points="-32.6,-50.6 32.6,-50.6 0,-71.9" fill="#7a4a3a"/><rect x="-15.7" y="-37.1" width="12.4" height="12.4" fill="#dfeaf2"/><rect x="3.4" y="-37.1" width="12.4" height="12.4" fill="#dfeaf2"/></g><rect x="0" y="112" width="150" height="86" fill="#c8b08a"/><rect x="14" y="134" width="26" height="26" fill="#dfeaf2"/><rect x="56" y="134" width="26" height="26" fill="#dfeaf2"/><g transform="translate(377,209)"><rect x="-3.2" y="-35.7" width="6.4" height="35.7" fill="#9aa3a9"/><circle cx="0" cy="-67.8" r="35.7" fill="#fff" stroke="#d0021b" stroke-width="9.3"/><text x="0" y="-55.3" font-family="Arial" font-size="37.5" font-weight="bold" fill="#111" text-anchor="middle">50</text></g><g transform="translate(106,231)"><ellipse cx="0" cy="0" rx="6.8" ry="1.9" fill="#000" opacity=".22"/><circle cx="0" cy="-32.5" r="4.9" fill="#e8b98f"/><rect x="-4.9" y="-28.0" width="9.8" height="15.1" rx="3.0" fill="#e74c3c"/><path d="M-1.9 -12.9 L-11.3 0" stroke="#2f3640" stroke-width="3.4" stroke-linecap="round"/><path d="M1.9 -12.9 L11.3 0" stroke="#2f3640" stroke-width="3.4" stroke-linecap="round"/></g><g transform="translate(74,245)"><ellipse cx="0" cy="0" rx="7.6" ry="2.1" fill="#000" opacity=".22"/><circle cx="0" cy="-36.4" r="5.5" fill="#e8b98f"/><rect x="-5.5" y="-31.3" width="11.0" height="16.9" rx="3.4" fill="#3498db"/><path d="M-2.1 -14.4 L-12.7 0" stroke="#2f3640" stroke-width="3.8" stroke-linecap="round"/><path d="M2.1 -14.4 L12.7 0" stroke="#2f3640" stroke-width="3.8" stroke-linecap="round"/></g><g transform="translate(93,253)"><ellipse cx="0" cy="0" rx="8.0" ry="2.2" fill="#000" opacity=".22"/><circle cx="0" cy="-38.4" r="5.8" fill="#e8b98f"/><rect x="-5.8" y="-33.0" width="11.6" height="17.8" rx="3.6" fill="#f1c40f"/><path d="M-2.2 -15.2 L-13.4 0" stroke="#2f3640" stroke-width="4.0" stroke-linecap="round"/><path d="M2.2 -15.2 L13.4 0" stroke="#2f3640" stroke-width="4.0" stroke-linecap="round"/></g><rect x="0.5" y="0.5" width="479" height="299" fill="none" stroke="#00000022"/></svg>