<svg xmlns="http://www.w3.org/2000/svg" viewBox="0 0 480 300" role="img"><title>Voetganger stapt het zebrapad op</title><defs><linearGradient id="sky" x1="0" y1="0" x2="0" y2="1"><stop offset="0" stop-color="#8fc4e8"/><stop offset="1" stop-color="#dcecf7"/></linearGradient></defs><rect width="480" height="118" fill="url(#sky)"/><rect y="118" width="480" height="182" fill="#9aa79a"/><polygon points="225.64,121.64 219.178,121.64 -124.80000000000001,300 12.0,300" fill="#c9c4bb"/><polygon points="254.36,121.64 260.822,121.64 604.8,300 468.0,300" fill="#c9c4bb"/><polygon points="230.0,118 250.0,118 468.0,300 12.0,300" fill="#5f6266"/><polygon points="238.8,136.2 241.2,136.2 241.6,143.844 238.4,143.844" fill="#f2f2f2"/><polygon points="238.8,154.4 241.2,154.4 241.6,169.688 238.4,169.688" fill="#f2f2f2"/><polygon points="238.0,190.8 242.0,190.8 242.84,221.37599999999998 237.16,221.37599999999998" fill="#f2f2f2"/><polygon points="236.0,263.6 244.0,263.6 245.68,300 234.32,300" fill="#f2f2f2"/><polygon points="224.5708,121.64 227.5708,121.64 23.840000000000003,300 13.840000000000003,300" fill="#f2f2f2"/><polygon points="252.4292,121.64 255.4292,121.64 466.15999999999997,300 456.15999999999997,300" fill="#f2f2f2"/><g transform="translate(181,143)"><rect x="-9.9" y="-17.8" width="19.8" height="17.8" fill="#b98a6a"/><polygon points="-11.5,-17.8 11.5,-17.8 0,-25.3" fill="#7a4a3a"/><rect x="-5.5" y="-13.1" width="4.4" height="4.4" fill="#dfeaf2"/><rect x="1.2" y="-13.1" width="4.4" height="4.4" fill="#dfeaf2"/></g><g transform="translate(85,191)"><rect x="-19.0" y="-34.2" width="38.0" height="34.2" fill="#a97a5c"/><polygon points="-22.0,-34.2 22.0,-34.2 0,-48.6" fill="#7a4a3a"/><rect x="-10.6" y="-25.1" width="8.4" height="8.4" fill="#dfeaf2"/><rect x="2.3" y="-25.1" width="8.4" height="8.4" fill="#dfeaf2"/></g><g transform="translate(-26,238)"><rect x="-28.1" y="-50.6" width="56.2" height="50.6" fill="#c49a78"/><polygon points="-32.6,-50.6 32.6,-50.6 0,-71.9" fill="#7a4a3a"/><rect x="-15.7" y="-37.1" width="12.4" height="12.4" fill="#dfeaf2"/><rect x="3.4" y="-37.1" width="12.4" height="12.4" fill="#dfeaf2"/></g><g transform="translate(299,143)"><rect x="-9.9" y="-17.8" width="19.8" height="17.8" fill="#b98a6a"/><polygon points="-11.5,-17.8 11.5,-17.8 0,-25.3" fill="#7a4a3a"/><rect x="-5.5" y="-13.1" width="4.4" height="4.4" fill="#dfeaf2"/><rect x="1.2" y="-13.1" width="4.4" height="4.4" fill="#dfeaf2"/></g><g transform="translate(395,191)"><rect x="-19.0" y="-34.2" width="38.0" height="34.2" fill="#a97a5c"/><polygon points="-22.0,-34.2 22.0,-34.2 0,-48.6" fill="#7a4a3a"/><rect x="-10.6" y="-25.1" width="8.4" height="8.4" fill="#dfeaf2"/><rect x="2.3" y="-25.1" width="8.4" height="8.4" fill="#dfeaf2"/></g><g transform="translate(506,238)"><rect x="-28.1" y="-50.6" width="56.2" height="50.6" fill="#c49a78"/><polygon points="-32.6,-50.6 32.6,-50.6 0,-71.9" fill="#7a4a3a"/><rect x="-15.7" y="-37.1" width="12.4" height="12.4" fill="#dfeaf2"/><rect x="3.4" y="-37.1" width="12.4" height="12.4" fill="#dfeaf2"/></g><polygon points="109.8,243.2 135.6,243.2 133.5,217.2 111.8,217.2" fill="#f2f2f2"/><polygon points="156.7,243.2 182.5,243.2 180.4,217.2 158.8,217.2" fill="#f2f2f2"/><polygon points="203.6,243.2 229.4,243.2 227.4,217.2 205.7,217.2" fill="#f2f2f2"/><polygon points="250.6,243.2 276.4,243.2 274.3,217.2 252.6,217.2" fill="#f2f2f2"/><polygon points="297.5,243.2 323.3,243.2 321.2,217.2 299.6,217.2" fill="#f2f2f2"/><polygon points="344.4,243.2 370.2,243.2 368.2,217.2 346.5,217.2" fill="#f2f2f2"/><g transform="translate(91,218)"><rect x="-3.5" y="-39.0" width="7.0" height="39.0" fill="#9aa3a9"/><polygon points="0,-113.0 40.9,-37.0 -40.9,-37.0" fill="#fff" stroke="#d0021b" stroke-width="10.9"/><circle cx="1.9" cy="-79.9" r="6.2" fill="#111"/><rect x="-2.3" y="-74.0" width="7.8" height="19.5" fill="#111"/></g><g transform="translate(163,227)"><ellipse cx="0" cy="0" rx="10.6" ry="3.0" fill="#000" opacity=".22"/><circle cx="0" cy="-50.9" r="7.7" fill="#e8b98f"/><rect x="-7.7" y="-43.8" width="15.4" height="23.7" rx="4.7" fill="#8e44ad"/><path d="M-3.0 -20.1 L-17.7 0" stroke="#2f3640" stroke-width="5.3" stroke-linecap="round"/><path d="M3.0 -20.1 L17.7 0" stroke="#2f3640" stroke-width="5.3" stroke-linecap="round"/></g><rect x="0.5" y="0.5" width="479" height="299" fill="none" stroke="#00000022"/></svg>